<svg width="83" height="125" viewBox="0 0 83 125" fill="none" xmlns="http://www.w3.org/2000/svg">
<path d="M20.75 125C32.204 125 41.5 115.667 41.5 104.167V83.3333H20.75C9.296 83.3333 0 92.6666 0 104.167C0 115.667 9.296 125 20.75 125Z" fill="#0ACF83"/>
<path d="M0 62.5001C0 51.0001 9.296 41.6667 20.75 41.6667H41.5V83.3334H20.75C9.296 83.3334 0 74.0001 0 62.5001Z" fill="#A259FF"/>
<path d="M0 20.8333C0 9.33333 9.296 0 20.75 0H41.5V41.6667H20.75C9.296 41.6667 0 32.3333 0 20.8333Z" fill="#F24E1E"/>
<path d="M41.5 0H62.25C73.704 0 83 9.33333 83 20.8333C83 32.3333 73.704 41.6667 62.25 41.6667H41.5V0Z" fill="#FF7262"/>
<path d="M83 62.5001C83 74.0001 73.704 83.3334 62.25 83.3334C50.796 83.3334 41.5 74.0001 41.5 62.5001C41.5 51.0001 50.796 41.6667 62.25 41.6667C73.704 41.6667 83 51.0001 83 62.5001Z" fill="#1ABCFE"/>
</svg>
