<svg width="67" height="72" viewBox="0 0 67 72" fill="none" xmlns="http://www.w3.org/2000/svg">
<rect x="0.75" y="0.75" width="65.5" height="70.5" rx="32.75" stroke="white" stroke-width="1.5"/>
<path d="M41.25 53.6C39.5167 53.6 38.25 53.15 37.45 52.25C36.65 51.3167 36.25 50.1 36.25 48.6C36.25 47.0667 37 42.9667 38.5 36.3C35.6667 36.3667 33.4 36.6333 31.7 37.1C30.7333 41.8 29.25 45.8667 27.25 49.3C26.2167 51.0333 24.9667 52.4 23.5 53.4C22.0333 54.4333 20.4333 54.95 18.7 54.95C16.9667 54.95 15.55 54.3667 14.45 53.2C13.35 52.0667 12.8 50.5667 12.8 48.7C12.8 46.0333 13.9 43.5333 16.1 41.2C18.3 38.8333 21.0833 36.9333 24.45 35.5C24.75 32.4333 24.9 29.9333 24.9 28C24.9 26.0333 24.7 24.65 24.3 23.85C23.9333 23.05 23.3333 22.65 22.5 22.65C21.6667 22.65 20.5667 22.9667 19.2 23.6C17.8333 24.2 16.55 25.0167 15.35 26.05L14.1 24.25C15.3 22.7833 17.0667 21.4 19.4 20.1C21.7333 18.7667 23.9833 18.1 26.15 18.1C30.5167 18.1 32.7 21.4167 32.7 28.05C32.7 29.6167 32.5667 31.5 32.3 33.7C34.4667 33.2667 36.7833 32.9833 39.25 32.85C40.3833 27.5833 40.95 23.4167 40.95 20.35C40.95 19.7833 40.9167 19.35 40.85 19.05C43.5167 18.0167 46.2 17.5 48.9 17.5C49 17.7667 49.05 18.2333 49.05 18.9C49.05 20.9667 48.2333 25.6833 46.6 33.05C50.6 33.35 53.3333 33.75 54.8 34.25C54.8333 34.3833 54.85 34.6333 54.85 35C54.85 35.7 54.5333 36.5833 53.9 37.65C51.7333 36.9833 49.0667 36.55 45.9 36.35C44.7333 41.95 44.15 45.5833 44.15 47.25C44.15 48.8833 44.55 49.7 45.35 49.7C45.7833 49.7 46.25 49.6167 46.75 49.45L47.5 51.4C45.1 52.8667 43.0167 53.6 41.25 53.6ZM18.2 50.15C19.2667 50.15 20.3167 49.2333 21.35 47.4C22.3833 45.5667 23.2167 42.8333 23.85 39.2C21.9833 40 20.2833 41.25 18.75 42.95C17.2167 44.65 16.45 46.2833 16.45 47.85C16.45 48.5833 16.6167 49.15 16.95 49.55C17.3167 49.95 17.7333 50.15 18.2 50.15Z" fill="white"/>
</svg>
