<svg width="127" height="125" viewBox="0 0 127 125" fill="none" xmlns="http://www.w3.org/2000/svg">
<path d="M104.419 40.4736C103.068 39.9612 101.705 39.4865 100.331 39.0498C100.562 38.0081 100.775 36.9791 100.963 35.9681C104.058 19.3667 102.035 5.99223 95.1245 1.58872C88.4992 -2.63277 77.664 1.76909 66.7211 12.2938C65.6426 13.3328 64.5881 14.4019 63.5585 15.4999C62.8693 14.7698 62.1678 14.0538 61.4546 13.3524C49.9859 2.09914 38.4904 -2.64374 31.5878 1.77238C24.9684 6.00703 23.0083 18.5799 25.7944 34.3135C26.0716 35.8717 26.3846 37.422 26.733 38.9626C25.1058 39.4736 23.5357 40.0174 22.033 40.5964C8.58689 45.7773 0 53.8963 0 62.3179C0 71.0158 9.21841 79.74 23.2231 85.0301C24.3586 85.4571 25.5034 85.8528 26.6566 86.217C26.2822 87.8764 25.9497 89.547 25.6595 91.2269C23.0034 106.687 25.0775 118.963 31.6791 123.171C38.4974 127.516 49.9413 123.05 61.084 112.286C61.9875 111.41 62.8712 110.51 63.7342 109.587C64.8491 110.775 65.9939 111.93 67.1671 113.048C77.9611 123.312 88.6212 127.457 95.2163 123.238C102.028 118.88 104.242 105.692 101.368 89.6479C101.141 88.391 100.887 87.1402 100.606 85.8968C101.41 85.6337 102.199 85.3628 102.968 85.081C117.527 79.7505 127 71.132 127 62.3179C127 53.8656 118.136 45.6918 104.419 40.4736ZM101.262 79.3903C100.566 79.6439 99.8554 79.8897 99.1285 80.1276C97.5211 74.5043 95.3522 68.5251 92.6976 62.3469C95.2307 56.3162 97.3162 50.4133 98.8784 44.8267C100.178 45.2422 101.438 45.6803 102.654 46.1424C114.406 50.6139 121.575 57.2241 121.575 62.3179C121.575 67.7433 113.833 74.7866 101.262 79.3903ZM96.0457 90.8124C97.3167 97.9067 97.4978 104.321 96.6559 109.336C95.8999 113.842 94.3789 116.846 92.4977 118.049C88.4957 120.61 79.9366 117.282 70.7058 108.503C69.6146 107.463 68.5497 106.39 67.5124 105.285C71.0912 100.96 74.6676 95.9319 78.1581 90.3475C84.2977 89.7455 90.0981 88.7609 95.3581 87.4171C95.6178 88.5728 95.847 89.7046 96.0457 90.8124ZM43.2971 117.607C39.3869 119.133 36.2724 119.176 34.3897 117.977C30.3838 115.424 28.7184 105.567 30.99 92.3453C31.26 90.783 31.5692 89.2292 31.9172 87.6858C37.1192 88.9577 42.8774 89.8722 49.0314 90.4237C52.5458 95.8881 56.2253 100.911 59.9336 105.309C59.1455 106.151 58.3387 106.972 57.5141 107.771C52.5864 112.531 47.6488 115.908 43.2971 117.607ZM24.9783 79.3568C18.7856 77.0174 13.6714 73.9774 10.166 70.66C7.01576 67.6792 5.42578 64.7192 5.42578 62.3179C5.42578 57.2071 12.32 50.6885 23.8189 46.2581C25.2145 45.7208 26.675 45.2137 28.1905 44.7378C29.78 50.4506 31.8646 56.4237 34.3803 62.4637C31.8319 68.5931 29.7175 74.6616 28.1126 80.4418C27.06 80.1085 26.0149 79.7467 24.9783 79.3568ZM31.119 33.1616C28.7323 19.6819 30.3173 9.51361 34.3064 6.96153C38.5549 4.24333 47.9499 8.11887 57.8525 17.836C58.4982 18.471 59.1335 19.119 59.758 19.7795C56.068 24.1583 52.4222 29.1435 48.9392 34.5756C42.9662 35.1874 37.2487 36.1699 31.9921 37.4862C31.6682 36.0532 31.377 34.6109 31.119 33.1616ZM85.9011 48.1117C84.6595 45.7417 83.3718 43.4014 82.039 41.0926C86.0911 41.6589 89.9735 42.4105 93.6193 43.3294C92.525 47.2066 91.1607 51.2598 89.5548 55.4155C88.3811 52.9543 87.1629 50.5192 85.9011 48.1117ZM63.561 24.0651C66.0633 27.0613 68.5696 30.4062 71.0347 34.0355C66.034 33.7745 61.0251 33.7734 56.0244 34.0322C58.4919 30.4363 61.0195 27.0958 63.561 24.0651ZM41.0776 48.1523C39.8315 50.5404 38.6361 52.9603 37.4923 55.41C35.9127 51.2691 34.5609 47.1973 33.4571 43.2653C37.0805 42.3694 40.9446 41.637 44.9709 41.081C43.6233 43.404 42.3252 45.7621 41.0776 48.1523ZM45.0865 83.9807C40.9267 83.4676 37.0046 82.7729 33.3821 81.9012C34.5033 77.899 35.8849 73.7406 37.4987 69.5109C38.6471 71.9624 39.8475 74.3838 41.0989 76.7729C42.3858 79.2291 43.7183 81.6348 45.0865 83.9807ZM63.7108 100.993C61.1391 97.927 58.5743 94.535 56.0695 90.887C58.5014 90.9922 60.9803 91.046 63.5 91.046C66.0886 91.046 68.6475 90.9818 71.1661 90.8579C68.6931 94.5717 66.1963 97.9687 63.7108 100.993ZM89.6059 69.2949C91.3036 73.5712 92.7343 77.7077 93.8704 81.6414C90.1884 82.5701 86.2127 83.3179 82.0236 83.8733C83.366 81.5216 84.6659 79.1407 85.9224 76.7318C87.2001 74.2834 88.4283 71.8038 89.6059 69.2949ZM81.223 73.7362C79.2991 77.4293 77.2671 81.0524 75.1304 84.5997C71.2597 84.9028 67.3804 85.0533 63.5 85.0509C59.5476 85.0509 55.7034 84.9149 52.0015 84.6496C49.8088 81.1106 47.7382 77.4812 45.7939 73.7691C43.8586 70.0768 42.0515 66.3045 40.3756 62.4604C42.0473 58.6155 43.8494 54.8414 45.778 51.1463L45.7775 51.1468C47.7052 47.4506 49.7594 43.8367 51.9356 40.313C55.7123 39.9972 59.5853 39.8327 63.4995 39.8327C67.4315 39.8327 71.31 39.9988 75.0858 40.3168C77.24 43.8353 79.281 47.4367 81.2051 51.1145C83.1399 54.8016 84.9658 58.5573 86.68 62.3755C84.9834 66.2327 83.1632 70.022 81.223 73.7362ZM92.4148 6.78225C96.6673 9.49278 98.3213 20.4231 95.6494 34.757C95.478 35.6722 95.2879 36.6024 95.0788 37.5476C89.8093 36.2033 84.0879 35.2038 78.0976 34.5827C74.608 29.0909 70.992 24.098 67.3621 19.7757C68.3134 18.7623 69.2874 17.7751 70.2831 16.8151C79.6593 7.79815 88.4223 4.23784 92.4148 6.78225ZM63.5 49.785C69.7632 49.785 74.8407 55.3963 74.8407 62.3179C74.8407 69.2395 69.7632 74.8508 63.5 74.8508C57.2368 74.8508 52.1593 69.2395 52.1593 62.3179C52.1593 55.3963 57.2368 49.785 63.5 49.785Z" fill="#00D8FF"/>
</svg>
